<svg width="241" height="50" viewBox="0 0 241 50" fill="none" xmlns="http://www.w3.org/2000/svg">
<rect x="122" width="119" height="50" rx="8" fill="#EB7D3D"/>
<path d="M6.048 11.908V37H2.772V11.908H6.048ZM35.5554 16.912C37.0914 16.912 38.4594 17.236 39.6594 17.884C40.8594 18.508 41.8074 19.456 42.5034 20.728C43.1994 22 43.5474 23.548 43.5474 25.372V37H40.3074V25.84C40.3074 23.872 39.8154 22.372 38.8314 21.34C37.8714 20.284 36.5634 19.756 34.9074 19.756C33.2034 19.756 31.8474 20.308 30.8394 21.412C29.8314 22.492 29.3274 24.064 29.3274 26.128V37H26.0874V25.84C26.0874 23.872 25.5954 22.372 24.6114 21.34C23.6514 20.284 22.3434 19.756 20.6874 19.756C18.9834 19.756 17.6274 20.308 16.6194 21.412C15.6114 22.492 15.1074 24.064 15.1074 26.128V37H11.8314V17.272H15.1074V20.116C15.7554 19.084 16.6194 18.292 17.6994 17.74C18.8034 17.188 20.0154 16.912 21.3354 16.912C22.9914 16.912 24.4554 17.284 25.7274 18.028C26.9994 18.772 27.9474 19.864 28.5714 21.304C29.1234 19.912 30.0354 18.832 31.3074 18.064C32.5794 17.296 33.9954 16.912 35.5554 16.912ZM52.3972 20.908C53.0452 19.78 54.0052 18.844 55.2772 18.1C56.5732 17.332 58.0732 16.948 59.7772 16.948C61.5292 16.948 63.1132 17.368 64.5292 18.208C65.9692 19.048 67.0972 20.236 67.9132 21.772C68.7292 23.284 69.1372 25.048 69.1372 27.064C69.1372 29.056 68.7292 30.832 67.9132 32.392C67.0972 33.952 65.9692 35.164 64.5292 36.028C63.1132 36.892 61.5292 37.324 59.7772 37.324C58.0972 37.324 56.6092 36.952 55.3132 36.208C54.0412 35.44 53.0692 34.492 52.3972 33.364V46.36H49.1212V17.272H52.3972V20.908ZM65.7892 27.064C65.7892 25.576 65.4892 24.28 64.8892 23.176C64.2892 22.072 63.4732 21.232 62.4412 20.656C61.4332 20.08 60.3172 19.792 59.0932 19.792C57.8932 19.792 56.7772 20.092 55.7452 20.692C54.7372 21.268 53.9212 22.12 53.2972 23.248C52.6972 24.352 52.3972 25.636 52.3972 27.1C52.3972 28.588 52.6972 29.896 53.2972 31.024C53.9212 32.128 54.7372 32.98 55.7452 33.58C56.7772 34.156 57.8932 34.444 59.0932 34.444C60.3172 34.444 61.4332 34.156 62.4412 33.58C63.4732 32.98 64.2892 32.128 64.8892 31.024C65.4892 29.896 65.7892 28.576 65.7892 27.064ZM72.4253 27.064C72.4253 25.048 72.8333 23.284 73.6493 21.772C74.4653 20.236 75.5813 19.048 76.9973 18.208C78.4373 17.368 80.0333 16.948 81.7853 16.948C83.5133 16.948 85.0133 17.32 86.2853 18.064C87.5573 18.808 88.5053 19.744 89.1293 20.872V17.272H92.4413V37H89.1293V33.328C88.4813 34.48 87.5093 35.44 86.2133 36.208C84.9413 36.952 83.4533 37.324 81.7493 37.324C79.9973 37.324 78.4133 36.892 76.9973 36.028C75.5813 35.164 74.4653 33.952 73.6493 32.392C72.8333 30.832 72.4253 29.056 72.4253 27.064ZM89.1293 27.1C89.1293 25.612 88.8293 24.316 88.2293 23.212C87.6293 22.108 86.8133 21.268 85.7813 20.692C84.7733 20.092 83.6573 19.792 82.4333 19.792C81.2093 19.792 80.0933 20.08 79.0853 20.656C78.0773 21.232 77.2733 22.072 76.6733 23.176C76.0733 24.28 75.7733 25.576 75.7733 27.064C75.7733 28.576 76.0733 29.896 76.6733 31.024C77.2733 32.128 78.0773 32.98 79.0853 33.58C80.0933 34.156 81.2093 34.444 82.4333 34.444C83.6573 34.444 84.7733 34.156 85.7813 33.58C86.8133 32.98 87.6293 32.128 88.2293 31.024C88.8293 29.896 89.1293 28.588 89.1293 27.1ZM96.9535 27.1C96.9535 25.06 97.3615 23.284 98.1775 21.772C98.9935 20.236 100.121 19.048 101.561 18.208C103.025 17.368 104.693 16.948 106.565 16.948C108.989 16.948 110.981 17.536 112.541 18.712C114.125 19.888 115.169 21.52 115.673 23.608H112.145C111.809 22.408 111.149 21.46 110.165 20.764C109.205 20.068 108.005 19.72 106.565 19.72C104.693 19.72 103.181 20.368 102.029 21.664C100.877 22.936 100.301 24.748 100.301 27.1C100.301 29.476 100.877 31.312 102.029 32.608C103.181 33.904 104.693 34.552 106.565 34.552C108.005 34.552 109.205 34.216 110.165 33.544C111.125 32.872 111.785 31.912 112.145 30.664H115.673C115.145 32.68 114.089 34.3 112.505 35.524C110.921 36.724 108.941 37.324 106.565 37.324C104.693 37.324 103.025 36.904 101.561 36.064C100.121 35.224 98.9935 34.036 98.1775 32.5C97.3615 30.964 96.9535 29.164 96.9535 27.1ZM145.486 11.908V14.572H138.646V37H135.37V14.572H128.494V11.908H145.486ZM158.323 37.324C156.475 37.324 154.795 36.904 153.283 36.064C151.795 35.224 150.619 34.036 149.755 32.5C148.915 30.94 148.495 29.14 148.495 27.1C148.495 25.084 148.927 23.308 149.791 21.772C150.679 20.212 151.879 19.024 153.391 18.208C154.903 17.368 156.595 16.948 158.467 16.948C160.339 16.948 162.031 17.368 163.543 18.208C165.055 19.024 166.243 20.2 167.107 21.736C167.995 23.272 168.439 25.06 168.439 27.1C168.439 29.14 167.983 30.94 167.071 32.5C166.183 34.036 164.971 35.224 163.435 36.064C161.899 36.904 160.195 37.324 158.323 37.324ZM158.323 34.444C159.499 34.444 160.603 34.168 161.635 33.616C162.667 33.064 163.495 32.236 164.119 31.132C164.767 30.028 165.091 28.684 165.091 27.1C165.091 25.516 164.779 24.172 164.155 23.068C163.531 21.964 162.715 21.148 161.707 20.62C160.699 20.068 159.607 19.792 158.431 19.792C157.231 19.792 156.127 20.068 155.119 20.62C154.135 21.148 153.343 21.964 152.743 23.068C152.143 24.172 151.843 25.516 151.843 27.1C151.843 28.708 152.131 30.064 152.707 31.168C153.307 32.272 154.099 33.1 155.083 33.652C156.067 34.18 157.147 34.444 158.323 34.444ZM186.626 22.42V25.192H172.262V22.42H186.626ZM191.75 27.064C191.75 25.048 192.158 23.284 192.974 21.772C193.79 20.236 194.906 19.048 196.322 18.208C197.762 17.368 199.37 16.948 201.146 16.948C202.682 16.948 204.11 17.308 205.43 18.028C206.75 18.724 207.758 19.648 208.454 20.8V10.36H211.766V37H208.454V33.292C207.806 34.468 206.846 35.44 205.574 36.208C204.302 36.952 202.814 37.324 201.11 37.324C199.358 37.324 197.762 36.892 196.322 36.028C194.906 35.164 193.79 33.952 192.974 32.392C192.158 30.832 191.75 29.056 191.75 27.064ZM208.454 27.1C208.454 25.612 208.154 24.316 207.554 23.212C206.954 22.108 206.138 21.268 205.106 20.692C204.098 20.092 202.982 19.792 201.758 19.792C200.534 19.792 199.418 20.08 198.41 20.656C197.402 21.232 196.598 22.072 195.998 23.176C195.398 24.28 195.098 25.576 195.098 27.064C195.098 28.576 195.398 29.896 195.998 31.024C196.598 32.128 197.402 32.98 198.41 33.58C199.418 34.156 200.534 34.444 201.758 34.444C202.982 34.444 204.098 34.156 205.106 33.58C206.138 32.98 206.954 32.128 207.554 31.024C208.154 29.896 208.454 28.588 208.454 27.1ZM226.106 37.324C224.258 37.324 222.578 36.904 221.066 36.064C219.578 35.224 218.402 34.036 217.538 32.5C216.698 30.94 216.278 29.14 216.278 27.1C216.278 25.084 216.71 23.308 217.574 21.772C218.462 20.212 219.662 19.024 221.174 18.208C222.686 17.368 224.378 16.948 226.25 16.948C228.122 16.948 229.814 17.368 231.326 18.208C232.838 19.024 234.026 20.2 234.89 21.736C235.778 23.272 236.222 25.06 236.222 27.1C236.222 29.14 235.766 30.94 234.854 32.5C233.966 34.036 232.754 35.224 231.218 36.064C229.682 36.904 227.978 37.324 226.106 37.324ZM226.106 34.444C227.282 34.444 228.386 34.168 229.418 33.616C230.45 33.064 231.278 32.236 231.902 31.132C232.55 30.028 232.874 28.684 232.874 27.1C232.874 25.516 232.562 24.172 231.938 23.068C231.314 21.964 230.498 21.148 229.49 20.62C228.482 20.068 227.39 19.792 226.214 19.792C225.014 19.792 223.91 20.068 222.902 20.62C221.918 21.148 221.126 21.964 220.526 23.068C219.926 24.172 219.626 25.516 219.626 27.1C219.626 28.708 219.914 30.064 220.49 31.168C221.09 32.272 221.882 33.1 222.866 33.652C223.85 34.18 224.93 34.444 226.106 34.444Z" fill="#F7FAFC"/>
</svg>
